<?xml version="1.0" ?>
<!DOCTYPE svg  PUBLIC '-//W3C//DTD SVG 1.1//EN'  'http://www.w3.org/Graphics/SVG/1.1/DTD/svg11.dtd'>
<!-- Uploaded to: SVG Repo, www.svgrepo.com, Generator: SVG Repo Mixer Tools -->
<svg width="800px" height="800px" viewBox="-0.5 0 1020 1020" style="shape-rendering:geometricPrecision; text-rendering:geometricPrecision; image-rendering:optimizeQuality; fill-rule:evenodd; clip-rule:evenodd" version="1.1" xml:space="preserve" xmlns="http://www.w3.org/2000/svg" xmlns:xlink="http://www.w3.org/1999/xlink">
<defs>
<style type="text/css">
   <![CDATA[
    .fil0 {fill:#FEFEFE}
    .fil1 {fill:#1D1819}
   ]]>
  </style>
</defs>
<g id="Layer_x0020_1">
<g id="_790635344">
<polygon class="fil0" points="7,196 65,196 65,131 130,131 130,66 191,66 191,0 1019,0 1019,192 954,192 954,322 1019,322 1019,642 954,642 954,703 1019,703 1019,894 893,894 893,1020 446,1020 446,959 381,959 381,1020 7,1020 7,894 65,894 65,833 191,833 191,768 65,768 65,703 7,703 7,577 65,577 65,512 126,512 126,447 65,447 65,386 7,386 "/>
<path class="fil1" d="M191 66l320 0 0 65 61 0 0 61 0 65 0 129 -61 0 0 61 0 65 0 65 -255 0 0 -65 255 0 61 0 0 -65 0 -61 65 0 0 61 0 65 130 0 0 65 -130 0 -65 0 0 126 195 0 61 0 0 65 -61 0 0 -65 0 -61 61 0 0 -195 -191 0 -65 0 -61 0 -65 0 0 -61 -65 0 -255 0 0 61 0 65 -61 0 0 65 0 126 0 65 126 0 0 65 -130 0 0 61 -61 0 0 126 381 0 0 -61 65 0 0 61 447 0 0 -126 61 0 65 0 0 -61 0 -130 -65 0 -61 0 0 65 -65 0 0 65 126 0 0 -130 0 -61 65 0 0 -320 -65 0 0 -65 0 -65 4 0 61 0 0 -61 0 -65 0 -66 -61 0 -767 0 0 66 -61 0 0 65 -65 0 0 65 -65 0 0 126 0 60 0 4 65 0 0 61 61 0 255 0 0 -61 0 -64 -316 0 0 -126 65 0 0 -65 61 0 0 -65zm65 702l446 0 0 65 -126 0 0 61 61 0 0 65 -65 0 0 -65 -126 0 -129 0 0 -61 -61 0 0 -65zm0 126l0 65 -65 0 0 -65 65 0zm-130 0l0 65 -65 0 0 -65 65 0zm576 0l126 0 0 65 -126 0 0 -65zm126 -447l65 0 0 195 61 0 0 -256 -126 0 0 61zm-763 256l126 0 0 -126 -126 0 -65 0 0 126 65 0zm446 0l0 -65 -255 0 0 65 255 0zm126 -317l0 -129 130 0 61 0 0 129 -191 0zm-256 -129l-60 0 0 -61 60 0 0 -65 65 0 0 65 0 61 -65 0zm191 -191l195 0 0 65 -65 0 0 61 -65 0 0 -61 -65 0 0 -65zm256 191l65 0 0 -65 -65 0 0 65zm0 -191l130 0 0 65 -130 0 0 -65z"/>
</g>
</g>
</svg>