<?xml version="1.0" ?>
<!DOCTYPE svg  PUBLIC '-//W3C//DTD SVG 1.1//EN'  'http://www.w3.org/Graphics/SVG/1.1/DTD/svg11.dtd'>
<!-- Uploaded to: SVG Repo, www.svgrepo.com, Generator: SVG Repo Mixer Tools -->
<svg width="800px" height="800px" viewBox="0 0 1019 1019" style="shape-rendering:geometricPrecision; text-rendering:geometricPrecision; image-rendering:optimizeQuality; fill-rule:evenodd; clip-rule:evenodd" version="1.1" xml:space="preserve" xmlns="http://www.w3.org/2000/svg" xmlns:xlink="http://www.w3.org/1999/xlink">
<defs>
<style type="text/css">
   <![CDATA[
    .fil0 {fill:#FEFEFE}
    .fil1 {fill:#1D1819}
   ]]>
  </style>
</defs>
<g id="Layer_x0020_1">
<g id="_788856528">
<polygon class="fil0" points="0,65 126,65 126,130 256,130 256,65 317,65 317,0 637,0 637,65 763,65 763,0 954,0 954,130 889,130 889,193 954,193 954,386 1019,386 1019,832 954,832 954,893 1019,893 1019,1019 637,1019 637,958 442,958 442,1019 0,1019 0,893 61,893 61,828 126,828 126,763 61,763 61,637 126,637 126,572 256,572 256,511 126,511 126,446 61,446 61,381 0,381 "/>
<path class="fil1" d="M317 65l320 0 126 0 126 0 0 65 -61 0 0 61 -65 0 -65 0 0 65 65 0 0 125 0 195 0 126 -65 0 0 65 0 126 -61 0 0 65 65 0 0 -65 61 0 0 65 65 0 0 -65 65 0 0 -61 61 0 65 0 0 -446 -65 0 0 -195 -65 0 -61 0 0 190 -65 0 -65 0 -61 0 0 -60 -65 0 0 60 -65 0 0 65 -61 0 0 65 -129 0 0 61 -61 0 0 65 0 126 0 65 61 0 0 65 320 0 0 -65 -65 0 -130 0 0 -61 -61 0 0 -130 61 0 130 0 65 0 0 130 61 0 130 0 0 65 61 0 0 -65 0 -65 0 -126 0 -65 -61 0 0 65 -65 0 -65 0 0 -195 0 -60 0 -65 -61 0 -65 0 0 65 -65 0 0 60 -126 0 0 -60 -255 0 -65 0 0 -65 126 0 0 -65 69 0 61 0 64 0 0 -61 191 0 0 63 -65 0 0 63 -61 0 0 -63 -65 0 0 63 -64 0 0 -65 0 -61 0 -65zm255 507l65 0 0 -61 -65 0 0 61 -130 0 0 65 0 130 130 0 0 -130 0 -65zm-316 -61l-130 0 0 -65 0 -65 255 0 0 65 -255 0 -65 0 0 -65 -61 0 0 -60 0 -191 0 -65 61 0 65 0 0 65 0 61 -65 0 0 -61 65 0 130 0 0 -65 61 0 0 -65 320 0 0 65 0 65 126 0 0 -65 0 -65 126 0 65 0 0 65 0 65 -65 0 0 61 0 195 65 0 0 316 -65 0 -61 0 0 65 61 0 65 0 0 65 0 61 0 65 -61 0 0 -65 61 0 65 0 0 65 0 61 -65 0 -317 0 0 -61 -195 0 0 61 -381 0 -61 0 0 -61 0 -65 61 0 65 0 0 65 -65 0 0 -65 0 -65 65 0 0 -65 0 -126 0 -65 65 0 65 0 0 -61zm-130 252l65 0 0 -126 -65 0 -61 0 0 126 61 0zm65 130l0 65 126 0 0 -65 -126 0z"/>
</g>
</g>
</svg>